PathFileType	4	(X/Y/Z)	W14_1_OpenSim.trc																																																																																																																						
DataRate	CameraRate	NumFrames	NumMarkers	Units	OrigDataRate	OrigDataStartFrame	OrigNumFrames																																																																																																																		
100	100	10	40	mm	100	1	3000																																																																																																																		
Frame#	Time	R.ASIS			R.PSIS			S2			L.PSIS			L.ASIS			R.TH1			R.TH2			R.TH3			R.MKnee			R.Knee			R.SH1			R.SH2			R.SH3			R.SH4			R.Ankle			R.MAnkle			R.Heel			R.MT5			R.MT1			L.TH1			L.TH2			L.TH3			L.TH4			L.MKnee			L.Knee			L.SH1			L.SH2			L.SH3			L.Ankle			L.MAnkle			L.Heel			L.MT5			L.MT1			R.Acr			L.Acr			C7			T10			Clav			Sternum			R.Back		
		X1	Y1	Z1	X2	Y2	Z2	X3	Y3	Z3	X4	Y4	Z4	X5	Y5	Z5	X6	Y6	Z6	X7	Y7	Z7	X8	Y8	Z8	X9	Y9	Z9	X10	Y10	Z10	X11	Y11	Z11	X12	Y12	Z12	X13	Y13	Z13	X14	Y14	Z14	X15	Y15	Z15	X16	Y16	Z16	X17	Y17	Z17	X18	Y18	Z18	X19	Y19	Z19	X20	Y20	Z20	X21	Y21	Z21	X22	Y22	Z22	X23	Y23	Z23	X24	Y24	Z24	X25	Y25	Z25	X26	Y26	Z26	X27	Y27	Z27	X28	Y28	Z28	X29	Y29	Z29	X30	Y30	Z30	X31	Y31	Z31	X32	Y32	Z32	X33	Y33	Z33	X34	Y34	Z34	X35	Y35	Z35	X36	Y36	Z36	X37	Y37	Z37	X38	Y38	Z38	X39	Y39	Z39	X40	Y40	Z40
1	0	1028.3452	1067.6783	-377.4959	832.9036	1066.6046	-457.1654	821.5709	1059.4091	-501.4037	823.0522	1062.3888	-552.0431	991.5733	1050.7633	-671.2199	1059.8176	744.8873	-354.0841	979.1092	726.287	-345.2068	1003.2372	619.8582	-363.3896	1045.8758	510.7339	-495.1031	1052.1331	510.572	-378.5446	1059.757	343.2234	-382.0166	1060.0772	232.6759	-404.4046	978.3883	341.6128	-367.5311	982.5115	229.4316	-381.9783	994.1693	74.9573	-401.3523	1032.024	95.3623	-492.8233	936.3401	36.2413	-461.5659	1108.6365	37.7477	-372.5641	1159.2156	39.908	-460.199	1036.5418	765.1452	-698.3577	1055.4703	657.8677	-702.5124	954.3456	746.5987	-700.6282	977.9212	639.2798	-697.7941	1072.6793	493.6323	-597.5297	1046.5577	513.0216	-710.4983	956.6844	414.9485	-721.5287	908.313	480.5966	-710.3697	823.0302	412.0743	-700.8304	695.8893	254.2464	-700.8284	731.5313	230.0894	-608.2986	636.3472	286.7941	-636.7508	706.8915	137.7135	-724.5782	750.7373	107.8059	-629.9913	976.2584	1457.4091	-355.3567	924.315	1449.8117	-678.2575	895.3494	1497.1487	-513.8386	858.3572	1167.2218	-512.1591	1029.4674	1398.9934	-528.6323	1058.8737	1259.0546	-524.8718	825.3793	1397.6674	-419.4725
2	0.01	1026.7129	1069.4668	-376.7835	830.7326	1068.696	-456.555	820.0063	1061.5999	-500.9338	820.8994	1064.7549	-551.4077	989.712	1054.0375	-670.1254	1052.8309	745.0256	-353.7061	972.0477	727.9572	-344.4376	993.9153	621.0888	-362.368	1034.5731	510.9135	-494.1957	1039.9983	510.775	-377.5826	1046.501	343.4828	-381.1193	1046.0158	233.04	-403.573	964.9977	342.3877	-367.1474	968.5624	230.0864	-381.6626	980.0256	75.1046	-401.1334	1017.9606	95.5659	-492.5971	922.3903	36.3468	-461.4353	1094.4451	37.684	-372.5641	1145.0772	40.0266	-460.1643	1038.1605	771.0209	-698.6112	1059.5695	664.4016	-703.3479	956.5685	750.7812	-700.6931	982.479	644.0747	-698.4602	1081.2957	500.0752	-598.2101	1054.1521	518.8124	-711.1344	967.5294	417.4849	-722.1308	916.9987	481.3325	-710.1108	834.3005	409.8499	-700.3504	712.6668	247.8882	-700.4657	749.6267	224.9886	-608.012	652.2	277.5651	-635.9656	728.4111	132.1508	-724.5743	773.7438	103.8765	-630.2495	976.0488	1460.3667	-354.8964	921.9324	1452.3478	-677.3325	894.109	1499.5427	-512.785	856.8433	1169.877	-510.6864	1027.9502	1401.4452	-528.3356	1057.2222	1261.6632	-524.6517	824.8664	1400.4008	-417.8296
3	0.02	1025.0547	1071.1715	-376.0686	828.5448	1070.6656	-455.9856	818.4227	1063.6708	-500.4914	818.7247	1066.9977	-550.8104	987.8322	1057.1737	-669.081	1045.7834	745.0835	-353.3798	964.967	729.5899	-343.7122	984.5806	622.294	-361.4014	1023.2383	511.0798	-493.3251	1027.8689	510.9757	-376.6683	1033.2516	343.7374	-380.2594	1032.0039	233.3873	-402.7799	951.6403	343.1372	-366.7716	954.6397	230.7366	-381.3537	965.8846	75.2455	-400.9273	1003.9046	95.7616	-492.3879	908.4232	36.467	-461.3169	1080.2582	37.6264	-372.5606	1130.9298	40.1403	-460.1357	1039.7087	776.7668	-698.8754	1063.5232	670.8014	-704.1412	958.7085	754.8769	-700.7878	986.8888	648.7777	-699.1079	1089.6155	506.4394	-598.8372	1061.5258	524.5138	-711.7064	978.2597	419.9356	-722.7045	925.5452	481.8955	-709.845	845.53	407.4344	-699.8991	729.679	241.1915	-700.204	767.9286	219.6374	-607.8307	668.2753	267.8867	-635.314	750.34	126.3645	-724.6744	797.1339	99.8489	-630.5969	975.8442	1463.2517	-354.4712	919.5647	1454.7761	-676.4413	892.8577	1501.8501	-511.7642	855.3254	1172.4309	-509.2391	1026.4121	1403.8159	-528.069	1055.5842	1264.173	-524.4236	824.3571	1403.0514	-416.1941
4	0.03	1023.3516	1072.7163	-375.3518	826.3323	1072.4152	-455.4908	816.7842	1065.526	-500.095	816.5167	1069.0189	-550.2798	985.9272	1060.0558	-668.1296	1038.6586	745.006	-353.1346	957.8558	731.1507	-343.0624	975.2283	623.45	-360.5316	1011.8553	511.2191	-492.5207	1015.7492	511.1698	-375.8398	1020.0154	343.981	-379.466	1018.0775	233.7016	-402.0568	938.3396	343.8444	-366.4129	940.764	231.3735	-381.0606	951.7498	75.3744	-400.745	989.8614	95.9415	-492.2101	894.4385	36.605	-461.2251	1066.0845	37.5759	-372.5494	1116.7686	40.2467	-460.1171	1041.1276	782.2597	-699.1582	1067.2114	676.9367	-704.8532	960.6921	758.7981	-700.9393	991.027	653.2952	-699.7189	1097.3846	512.6415	-599.3577	1068.4932	530.035	-712.1546	988.7773	422.2219	-723.2205	933.8353	482.1307	-709.5736	856.6947	404.659	-699.5083	747.1349	233.8874	-700.1312	786.6177	213.8367	-607.8457	684.7802	257.3977	-634.9088	773.021	120.1967	-724.9686	821.2224	95.6615	-631.1108	975.6436	1465.9945	-354.1078	917.2251	1456.9976	-675.6099	891.5866	1503.9902	-510.8024	853.8043	1174.7906	-507.84	1024.8323	1406.0287	-527.8612	1053.9696	1266.4929	-524.1833	823.8503	1405.5402	-414.5765
5	0.04	1021.597	1074.037	-374.6404	824.0996	1073.8832	-455.0913	815.0505	1067.1025	-499.7541	814.2774	1070.757	-549.8331	984.0062	1062.6019	-667.3022	1031.4889	744.7744	-352.9758	950.7161	732.6081	-342.5022	965.8641	624.5353	-359.7804	1000.4249	511.3168	-491.8026	1003.6446	511.35	-375.1182	1006.7992	344.2049	-378.7548	1004.2498	233.9718	-401.422	925.1041	344.5038	-366.0804	926.9471	231.9854	-380.7946	937.6243	75.4873	-400.5943	975.8323	96.0973	-492.0744	880.4423	36.7567	-461.1745	1051.9354	37.5297	-372.5267	1102.593	40.3464	-460.1097	1042.3756	787.3909	-699.4588	1070.5508	682.6871	-705.4495	962.463	762.4594	-701.168	994.8049	657.5367	-700.2786	1104.4159	518.5893	-599.7225	1074.9251	535.2854	-712.429	999.0148	424.2727	-723.6513	941.7906	481.9068	-709.3124	867.7967	401.3871	-699.2165	765.2004	225.8176	-700.3144	805.8346	207.4681	-608.1235	701.8974	245.8792	-634.8283	796.6841	113.5889	-725.5261	846.2141	91.3052	-631.8546	975.4377	1468.5308	-353.8223	914.9231	1458.929	-674.8542	890.2898	1505.8922	-509.9163	852.2864	1176.8788	-506.5091	1023.1909	1408.0127	-527.7375	1052.3817	1268.5459	-523.9333	823.3391	1407.7955	-412.9933
6	0.05	1019.8007	1075.0829	-373.9495	821.8622	1075.0442	-454.7928	813.2056	1068.368	-499.4756	812.0222	1072.1841	-549.4773	982.0883	1064.7633	-666.6131	1024.322	744.3944	-352.9005	943.5616	733.9321	-342.027	956.5002	625.5311	-359.1515	988.9553	511.3586	-491.1829	991.5671	511.506	-374.5074	993.6115	344.397	-378.1298	990.5114	234.1945	-400.8795	911.9336	345.1151	-365.7825	913.193	232.5609	-380.5664	923.51	75.5814	-400.4803	961.8153	96.2214	-491.9873	866.4285	36.9201	-461.175	1037.8159	37.4855	-372.4917	1088.4082	40.4405	-460.1107	1043.4247	792.072	-699.7644	1073.4929	687.9512	-705.9034	963.9852	765.7867	-701.4843	998.1666	661.4229	-700.7772	1110.5972	524.183	-599.8951	1080.7488	540.177	-712.4937	1008.9412	426.0214	-723.9763	949.3799	481.1152	-709.0934	878.862	397.517	-699.0683	783.9912	216.9414	-700.7953	825.6798	200.4979	-608.7033	719.7829	233.2663	-635.1133	821.4319	106.584	-726.3928	872.1961	86.8192	-632.8793	975.2133	1470.8021	-353.6215	912.6612	1460.5066	-674.1826	888.9653	1507.5	-509.1153	850.7813	1178.6377	-505.2639	1021.4723	1409.7056	-527.7179	1050.8157	1270.2695	-523.6834	822.8142	1409.7562	-411.465
7	0.06	1017.9857	1075.8164	-373.2993	819.6446	1075.8987	-454.5888	811.2678	1069.3164	-499.2649	809.7767	1073.2941	-549.2125	980.1889	1066.5142	-666.0569	1017.1896	743.8765	-352.9066	936.4137	735.0955	-341.6195	947.1508	626.4197	-358.6368	977.4579	511.3316	-490.669	979.5371	511.6234	-374.0009	980.4646	344.5445	-377.5891	976.8406	234.3698	-400.4231	898.8269	345.6776	-365.5252	899.4995	233.0923	-380.3821	909.4073	75.6547	-400.4074	947.8068	96.3079	-491.9519	852.3803	37.0932	-461.2304	1023.7213	37.4425	-372.4475	1074.2255	40.5266	-460.114	1044.2516	796.2368	-700.0517	1076.0147	692.6525	-706.1981	965.241	768.723	-701.8859	1001.0816	664.8903	-701.2086	1115.8853	529.3233	-599.8565	1085.9375	544.6271	-712.3292	1018.5568	427.407	-724.1882	956.618	479.6679	-708.9575	889.9324	392.9849	-699.1048	803.5761	207.3221	-701.5909	846.2194	192.9643	-609.5996	738.5661	219.6302	-635.7725	847.2553	99.3047	-727.593	899.1537	82.278	-634.224	974.9571	1472.757	-353.5072	910.4347	1461.6871	-673.5994	887.6154	1508.7722	-508.4049	849.2983	1180.032	-504.1204	1019.6705	1411.0542	-527.8124	1049.2576	1271.6161	-523.4495	822.2676	1411.3727	-410.0144
8	0.07	1016.1827	1076.2131	-372.7107	817.4788	1076.4617	-454.4643	809.2759	1069.9608	-499.1234	807.5704	1074.0934	-549.035	978.3161	1067.8401	-665.6143	1010.1032	743.2233	-352.9907	929.296	736.0748	-341.2586	937.8354	627.184	-358.2225	965.9502	511.2245	-490.2625	967.5821	511.684	-373.5877	967.3754	344.6351	-377.1301	963.2192	234.4952	-400.0417	885.7862	346.1903	-365.3101	885.8641	233.5776	-380.2408	895.3162	75.7068	-400.3798	933.803	96.354	-491.9688	838.2835	37.2699	-461.3383	1009.6412	37.4003	-372.3988	1060.0599	40.5972	-460.1128	1044.8398	799.8403	-700.2922	1078.1067	696.7377	-706.3265	966.2237	771.2287	-702.3573	1003.5352	667.8916	-701.568	1120.2909	533.922	-599.6046	1090.4932	548.5613	-711.933	1027.8806	428.3798	-724.2953	963.5535	477.5048	-708.9419	901.0575	387.7674	-699.3536	823.9859	197.1015	-702.6981	867.4918	184.9594	-610.8082	758.3442	205.1438	-636.7922	874.0698	91.9259	-729.1359	926.9947	77.7836	-635.914	974.6576	1474.3502	-353.4785	908.2342	1462.4447	-673.1069	886.246	1509.6813	-507.7874	847.8466	1181.0449	-503.0914	1017.7995	1412.0172	-528.0165	1047.6927	1272.5527	-523.2508	821.6937	1412.6056	-408.6628
9	0.08	1014.421	1076.2592	-372.2028	815.3964	1076.7522	-454.4027	807.2747	1070.323	-499.0495	805.4313	1074.5962	-548.9391	976.478	1068.7347	-665.2635	1003.0668	742.4274	-353.146	922.2304	736.8512	-340.9274	928.5837	627.8065	-357.8952	954.4553	511.0266	-489.9589	955.7352	511.6679	-373.2559	954.3667	344.6567	-376.7509	949.6433	234.5623	-399.7244	872.8231	346.6508	-365.1337	872.2909	234.0168	-380.1331	881.2369	75.7384	-400.4001	919.7988	96.3589	-492.0372	824.1401	37.4382	-461.489	995.5664	37.3578	-372.3511	1045.9251	40.6435	-460.1018	1045.181	802.8572	-700.4586	1079.764	700.1709	-706.2875	966.9305	773.2764	-702.8714	1005.5191	670.3914	-701.849	1123.8572	537.909	-599.1503	1094.4316	551.9174	-711.3188	1036.9344	428.909	-724.3173	970.2507	474.6027	-709.0643	912.2869	381.8828	-699.8206	845.225	186.4722	-704.1007	889.5077	176.612	-612.3121	779.1774	190.0442	-638.1464	901.7524	84.6506	-731.0232	955.5777	73.462	-637.9587	974.3044	1475.5453	-353.5326	906.0498	1462.7684	-672.7042	884.8662	1510.2096	-507.2621	846.4348	1181.6724	-502.1869	1015.9036	1412.5698	-528.3061	1046.1162	1273.0621	-523.106	821.0881	1413.4265	-407.428
10	0.09	1012.7228	1075.9475	-371.7918	813.4202	1076.7889	-454.3934	805.3071	1070.424	-499.0393	803.3835	1074.8209	-548.9185	974.6888	1069.1965	-664.99	996.089	741.4773	-353.3646	915.2356	737.4131	-340.6176	919.4363	628.2713	-357.6462	942.9992	510.7293	-489.7519	944.0318	511.5567	-372.9966	941.4656	344.5958	-376.4511	936.1227	234.5586	-399.4637	859.9623	347.0541	-364.988	858.7927	234.4095	-380.044	867.1735	75.7519	-400.4672	905.7894	96.3226	-492.1537	809.97	37.582	-461.6664	981.4909	37.3144	-372.3101	1031.8263	40.6595	-460.0773	1045.271	805.2752	-700.5302	1080.979	702.9285	-706.0831	967.3548	774.8441	-703.3932	1007.0234	672.3613	-702.0407	1126.6378	541.2333	-598.514	1097.7678	554.6466	-710.5128	1045.7283	428.9862	-724.2786	976.7718	470.9786	-709.3101	923.6624	375.3851	-700.488	867.2803	175.6531	-705.7764	912.2449	168.0772	-614.0851	801.0944	174.5981	-639.8097	930.1682	77.6909	-733.2498	984.741	69.4551	-640.348	973.8877	1476.3142	-353.6644	903.8745	1462.6583	-672.387	883.4872	1510.3478	-506.8273	845.0709	1181.9164	-501.4148	1014.0475	1412.7045	-528.6446	1044.5364	1273.1401	-523.03	820.4475	1413.8173	-406.3227
